<?xml version="1.0" encoding="utf-8"?>
<!-- Generator: Adobe Illustrator 26.0.2, SVG Export Plug-In . SVG Version: 6.00 Build 0)  -->
<svg version="1.1" id="Слой_1" xmlns="http://www.w3.org/2000/svg" xmlns:xlink="http://www.w3.org/1999/xlink" x="0px" y="0px"
	 viewBox="0 0 2202.8 328.8" style="enable-background:new 0 0 2202.8 328.8;" xml:space="preserve">
<style type="text/css">
	.st0{fill:#00A99A;}
	.st1{fill:none;stroke:#FFFFFF;stroke-width:3;stroke-miterlimit:10;}
	.st2{fill:#858585;}
</style>
<g>
	<circle class="st0" cx="164.3" cy="164.4" r="164.4"/>
</g>
<path id="XMLID_1_" class="st1" d="M158.1,160.7L158.1,160.7 M208.4,168.4L208.4,168.4 M209.5,165.7l-0.1,0.2 M226.9,162.8l-0.4-0.1
	 M93.4,170.8l1.2-0.3 M237,175.9l-0.2-0.1 M239.2,172.3l-5.4-1.7 M137.8,131.6L137.8,131.6 M218,154l-0.2-0.1 M228.9,156.4l-3.3-0.7
	 M91.3,165.8l7.1-1.9 M145.4,166.8l-0.2,0.5 M241.4,167.3l-11.5-3.6 M228.9,156.4l-1.1,3.6 M83.2,179.3l8-3.1 M93.4,170.8l0.4,0.9
	 M94.2,172.3l0.1,0.2 M102.8,147l5.1-1 M97.5,177L97.5,177 M85.6,181.5l2.9-1.1 M89.2,159.4l13.6-3.7 M102.8,147l1.2,6.1
	 M80.7,175.7l12.6-4.9 M91.3,165.8l2.1,5 M230.7,148.3l-10.1-2.2 M215.1,134.9l-0.1,1 M248.5,180.9l-11.5-5 M236.8,176.1l0.2-0.2
	 M239.2,172.3l-2.2,3.6 M243.6,161l-14.7-4.5 M230.7,148.3l-1.8,8.1 M246,183.1l-6.3-2.7 M232.9,179.3l0.2-0.1 M78.4,170.8l13-5.1
	 M89.2,159.4l2.1,6.4 M251.1,177.4l-11.9-5.1 M241.4,167.3l-2.1,5 M243.5,184.2l-1.4-0.6 M145.7,166v0.2 M145.3,166.8L145.3,166.8
	 M215.1,134.9l-0.7-0.2 M87.1,151.4l15.7-4.4 M101.1,137.3l1.7,9.7 M253.7,172.7l-12.4-5.3 M243.6,161l-2.1,6.4 M101.1,137.3
	l12.8-2.5 M117.7,122.2l0.4,4.8 M103.6,177.9l0.2-0.1 M222.1,176.4l-0.5-0.2 M75.9,164.5l13.3-5.2 M87.1,151.4l2.1,8 M87.2,182.2
	l-1.6-0.7 M75.9,186.7l9.8-5.2 M83.2,179.3l2.4,2.2 M245.8,153l-15.1-4.7 M232.5,138.6l-1.8,9.7 M73.1,184.7l10.1-5.4 M80.7,175.7
	l2.5,3.5 M232.5,138.6l-17.3-3.7 M216.6,123.1l-1.3,11.7 M78.7,187.8l7.8-4.2 M228.3,179.1l-0.2-0.1 M70.4,181.3l10.4-5.6
	 M78.4,170.8l2.4,4.9 M162.1,118.8h-0.8 M170.3,118.9h-0.7 M256.3,166.4l-12.7-5.4 M245.8,153l-2.2,8 M255.1,188.6l-9.1-5.5
	 M243.5,184.2l2.5-1.1 M248.5,180.9L246,183 M188.9,165l-0.6-0.1 M258,186.6l-9.4-5.6 M251.1,177.4l-2.6,3.5 M121.1,168.1l-0.3,0.5
	 M81.4,187.7l3.1-1.7 M252.4,189.5l-8.9-5.2 M242.5,184.2h1 M117.7,122.2l3.4-0.4 M67.6,176.6l10.8-5.8 M75.9,164.5l2.5,6.3
	 M260.9,183.3l-9.8-5.9 M253.7,172.7l-2.6,4.8 M214.1,172.3l-1.4-0.4 M85,141.8l16.1-4.4 M99.5,125.7l1.6,11.6 M216.6,123.1
	l-9.2-1.3 M73.5,156.8l13.7-5.3 M85,141.8l2.1,9.6 M249.4,189.4l-5.3-3.2 M263.7,178.7l-10-6 M256.3,166.4l-2.6,6.3 M248,143.5
	l-15.5-4.9 M234.3,127l-1.9,11.6 M159.9,156.8L159.9,156.8 M258.9,158.7l-13.1-5.6 M248,143.5l-2.1,9.5 M99.5,125.7l18.2-3.6
	 M105.2,175.2l0.4-0.2 M98.5,177.7l0.4-0.1 M64.8,170.6l11-6 M73.5,156.8l2.4,7.8 M120.9,168.2l0.2-0.1 M244.3,187l-0.3-0.1
	 M78.7,187.8l-2.8-1 M68.4,192.6l7.5-5.9 M73.1,184.7l2.8,2.1 M65.3,190.7l7.8-6 M70.4,181.3l2.8,3.3 M196.1,162.9l-0.6-0.2
	 M234.3,127l-17.8-3.9 M81.4,187.7l-2.8,0.1 M71.3,193.4l7.3-5.6 M62.4,187.5l8.1-6.2 M67.6,176.6l2.8,4.7 M266.5,172.6l-10.2-6.2
	 M258.9,158.7l-2.6,7.7 M83.8,186.9l-2.3,0.8 M74.4,193.2l7.1-5.5 M261.9,194.6l-6.8-6 M252.4,189.5l2.8-1 M258,186.6l-2.8,2
	 M265,192.7l-7-6.1 M260.9,183.3l-2.9,3.3 M71,147.2l14-5.4 M83,130.3l2.1,11.5 M234.2,180.3l0.3,0.3 M258.9,195.4l-6.5-5.9
	 M249.4,189.4l2.9,0.1 M83,130.3l16.6-4.6 M59.3,183.1l8.2-6.4 M64.8,170.6l2.8,6 M268,189.7l-7.2-6.4 M263.7,178.7l-2.8,4.6
	 M62.1,162.8l11.4-6 M71,147.2l2.5,9.5 M77.3,192.1l5.9-4.5 M255.8,195.1l-6.4-5.6 M246.6,188.4l2.8,1 M159.8,156.8L159.8,156.8
	 M98.5,177.3l-0.3,0.2 M261.3,149.1l-13.3-5.6 M250.2,132l-2.2,11.5 M219.3,168.8l0.4,0.5 M250.2,132l-15.9-5 M252.7,193.9l-6.1-5.4
	 M245.4,187.5l1.2,0.9 M234.6,180.2l-0.3-0.2 M271.1,185.1l-7.4-6.5 M266.5,172.6l-2.8,6 M269.4,164.9l-10.6-6.3 M261.3,149.1
	l-2.5,9.5 M86.8,185l0.2-0.2 M82.2,188.7l0.4-0.3 M56.4,177.1l8.4-6.6 M62.1,162.8l2.8,7.7 M71.3,193.4l-3-0.8 M64,198.1l4.4-5.5
	 M65.3,190.7l3,1.9 M74.4,193.2l-3,0.2 M66.5,199.4l4.8-6 M202.8,160.9l-0.4-0.2 M60.8,196.4l4.6-5.7 M62.4,187.5l3,3.2 M77.3,192.1
	l-3,1.1 M69.6,199.1l4.7-5.9 M57,194.2l5.3-6.7 M59.3,183.1l3,4.4 M68.5,135.9l14.4-5.6 M59.3,153.5l11.6-6.3 M68.5,135.9l2.4,11.3
	 M274.1,179.3l-7.6-6.8 M269.4,164.9l-2.9,7.6 M124,161.1l0.4-0.1 M264.4,198.3l-2.5-3.7 M258.9,195.4l3-0.8 M265,192.7l-3,1.9
	 M83.9,187l0.2-0.1 M84.7,186.4l0.4-0.3 M261.7,199.5l-2.8-4.2 M255.8,195.1l3,0.3 M267.6,196.6l-2.6-3.9 M268,189.7l-3,3
	 M80.4,190.1l-3,2 M72.8,197.8l4.5-5.7 M259.5,200.6l-3.7-5.5 M252.7,193.9l3,1.2 M53.3,169.6l8.8-6.8 M59.3,153.5l2.8,9.3
	 M263.9,137.9l-13.7-5.9 M53.8,189.9l5.5-6.8 M56.4,177.1l3,6 M271.1,194.3l-3.1-4.6 M271.1,185.1l-3,4.4 M238.1,180.8l0.7,0.8
	 M272.2,155.6l-10.8-6.6 M263.9,137.9l-2.6,11.2 M256.6,199.5l-3.8-5.7 M249.7,191.8l3,2 M83.3,187.4l-3,2.7 M76,195.5l4.4-5.5
	 M277.2,171.9l-7.8-6.9 M272.2,155.6l-2.8,9.2 M275.4,191.6l-4.3-6.4 M274.1,179.3l-3,5.9 M217.3,165l-0.2-0.1 M69.6,199.1l-3,0.4
	 M253.3,197.4l-3.7-5.6 M246.6,189l3,2.8 M50.6,184.2l5.7-7 M53.3,169.6l3,7.5 M239,181.6l-1-0.9 M57,194.2l0.3,0.2 M72.8,197.8
	l-3.2,1.3 M69,200.7l0.5-1.7 M85.4,185.1l-2,2.2 M79.1,192.6l4.3-5.2 M56.6,142.4l12-6.4 M50.4,160.4l9-6.9 M56.6,142.4l2.8,11.1
	 M56.9,194.2L56.9,194.2 M53.8,189.9l3.2,4.4 M76,195.5l-3.1,2.1 M71.2,201.8l1.5-4.1 M96.7,173.2l-0.2,0.3 M278.8,186.5l-4.7-7.2
	 M277.2,171.9l-3,7.5 M250.1,194.4l-3.5-5.3 M243.6,185.6l3,3.4 M256.6,199.5l2.5,1.1 M275,144.6l-11.1-6.8 M85,185.6l0.3-0.2
	 M79.1,192.6l-3.1,2.9 M73.7,201.2l2.1-5.6 M47.5,176.9l5.8-7.2 M50.4,160.4l3,9.2 M257.1,201.7l-0.4-2.1 M253.3,197.4l3.2,2.1
	 M280.3,162.8l-8.1-7.1 M275,144.6l-2.8,11 M53.2,191.5l0.5-1.7 M50.6,184.2l3.1,5.7 M247,190.7l-3.5-5.1 M240.5,181.6l3,4
	 M177.4,144.4l-0.3-0.1 M254.7,202.7l-1.2-5.3 M250.1,194.4l3.2,3 M93,175.2l0.3-0.2 M104.7,164.5l0.2-0.1 M148.7,144.5l0.9-0.1
	 M82.2,189l-3.1,3.5 M77,198.1l2-5.5 M282.1,179.3l-4.9-7.4 M280.3,162.8l-3,9.2 M278.8,186.5l-2.5,4.4 M60.8,205.3l0.2,0.1
	 M87.5,182.4l0.5-0.7 M120.5,150l-0.2,0.3 M49,188.5l1.6-4.4 M47.5,176.9l3.1,7.3 M220.4,159.1l0.1,0.2 M47.3,149.4l9.2-7.1
	 M251.6,199.9l-1.3-5.6 M247,190.7l3.1,3.6 M73.7,201.2l-1.2,1 M243.8,186.6l-3.3-4.9 M85.4,185l-3.1,4.1 M80.3,194.4l1.9-5.2
	 M44.4,167.8l5.9-7.4 M47.3,149.4l3,11 M279.3,188.2l-0.4-1.8 M282.1,179.3l-3.2,7.2 M77,198.1l-3.3,3.1 M73.8,202.7l-0.1-1.5
	 M283.3,151.8l-8.3-7.2 M99.8,167.5l0.3-0.2 M248.3,196.1l-1.2-5.3 M243.8,186.6l3.2,4.2 M285.2,170.3l-5-7.6 M283.3,151.8l-3,10.9
	 M44.9,183.9l2.7-7.1 M44.4,167.8l3.1,9.1 M51.3,197.7l-0.1-0.7 M251.6,199.9l3,2.9 M221.7,159.9l-1.2-0.8 M80.3,194.4l-3.2,3.7
	 M77.2,203.7l-0.2-5.6 M120.2,150.1l0.4-0.2 M88.6,180.3l-3.2,4.6 M83.5,190l1.9-5.1 M245.1,191.7l-1.2-5.1 M240.6,181.9l3.1,4.6
	 M250.8,204.2l0.7-4.4 M248.3,196.1l3.2,3.8 M280.6,193.8l-0.4,0.7 M283.3,184.3l-1.2-5.1 M285.2,170.3l-3.1,9 M83.5,190l-3.2,4.4
	 M80.4,199.7l-0.2-5.3 M96.5,169l-0.3,0.4 M94.9,171.4l0.4-0.5 M41.3,157.1l6.1-7.6 M91.7,175.4l-3.1,5 M86.7,185.2l1.9-4.9
	 M77.2,203.7l-0.3,0.2 M247.4,201.4l0.9-5.2 M245.1,191.7l3.2,4.4 M41.5,175.5l2.9-7.7 M41.3,157.1l3.1,10.7 M270.2,212.5l-0.4,0.2
	 M241.8,186.7l-1.1-4.9 M237.4,176.9l3.2,5.1 M86.7,185.2l-3.2,4.8 M83.7,195.2l-0.2-5.1 M288.4,159.6l-5.1-7.7 M250.7,205.4
	L250.7,205.4 M80.4,199.7l-3.2,4 M77.4,204.1l-0.2-0.4 M99.7,163.3l-0.4,0.8 M276.3,206.5l-0.3,0.4 M109,151l-0.1,0.2 M48.2,198.8
	l0.7,1.1 M244.2,196.8l0.9-5.1 M241.8,186.7l3.3,4.9 M94.9,169.9l-3.1,5.3 M89.9,180.1l1.8-4.7 M287.2,178l-2-7.7 M288.4,159.6
	l-3.2,10.7 M41.5,175.5l2.8,7.7 M250.5,205.6l0.2-0.2 M247.4,201.4l2.5,3.2 M83.7,195.2l-3.2,4.5 M82.9,204.9l-2.4-5.2 M69.6,224.6
	l-0.4-0.4 M89.9,180.1l-3.2,5.2 M86.9,190.1l-0.2-4.9 M238.6,181.5l-1.1-4.6 M234.2,171.5l3.2,5.4 M274.8,208.8l1.3-2.3
	 M260.1,220.3h-0.4 M244.6,206.4l2.9-5 M244.2,196.8l3.2,4.5 M152.4,124.6v0.2 M287.2,178l-0.7,2 M181.4,130.2l-0.4-0.1 M241,191.7
	l0.8-4.9 M238.6,181.5l3.2,5.2 M266,219.2l-0.4,0.2 M48.6,199.6l-0.4-0.8 M48,198.2l0.4,0.6 M86.9,190.1l-3.2,5 M86,200.2l-2.3-5.1
	 M203.9,135.2l0.3,0.6 M98,164.4l-3.1,5.6 M93.2,174.5l1.7-4.4 M38.3,165l3-8 M108.9,151.1L108.9,151.1 M82.9,204.9l-0.6,0.9
	 M63.6,221.5l-5.9-6.6 M54.6,211.2l3.1,3.6 M250.2,214.6l0.4-0.3 M265.2,220.1l0.9-0.9 M93.2,174.5l-3.2,5.6 M90.1,184.7l-0.2-4.7
	 M241.4,201.8l2.9-5 M241,191.7l3.2,5.1 M235.4,175.9l-1.1-4.4 M231.1,165.7l3.1,5.7 M136,127.1l-0.2,0.5 M133.2,132.7l0.2-0.1
	 M114.2,144.3l0.2-0.1 M41.7,179.7l-0.2-4.2 M38.3,165l3.2,10.6 M275.3,208.3l4.2-7.2 M282.7,194.3l-3.2,6.8 M86,200.2l-3.1,4.7
	 M84.3,206.5l-1.4-1.7 M237.8,186.2l0.8-4.7 M235.4,175.9l3.2,5.6 M90.1,184.7l-3.2,5.4 M89.1,195l-2.2-4.9 M262.4,223.5l6.7-6.4
	 M272.1,213.4l-3,3.6 M290.4,167.5l-2-8 M78.8,225.6L78,225 M80.3,229.9l-0.3-0.2 M69.9,224.5l1.1-0.1 M60.7,218l-6-6.8 M51.5,206
	l3,5.1 M101.2,158.7l-3.2,5.8 M96.5,168.7l1.5-4.3 M152,124.6l0.4-0.1 M241.4,201.8l3,4.6 M48.4,199.4l-3.4-7.5 M41.8,183.4l3.2,8.5
	 M238.2,196.5l2.8-4.9 M237.8,186.2l3.2,5.5 M287,179l0.2-1 M290.4,167.5l-3.2,10.5 M96.5,168.7l-3.3,5.8 M93.4,178.9l-0.3-4.4
	 M255.4,226.4L255.4,226.4 M89.1,195l-3.1,5.2 M90.3,205l-4.3-4.9 M247.7,222.8l0.3-0.2 M74.8,229.6l-8.2-6 M63.6,221.5l3,2.1
	 M232.1,170l-1.1-4.4 M227.9,159.9l3.2,5.8 M191.4,127l-0.4-0.1 M265.2,220l6.8-6.6 M275.3,208.3l-3.1,5.1 M93.4,178.9l-3.3,5.8
	 M92.3,189.3l-2.1-4.6 M242.2,215.9L242.2,215.9 M215.3,141.1l0.3,0.4 M234.6,180.4l0.7-4.4 M232.1,170l3.2,5.9 M236.3,206.5l5-4.7
	 M238.2,196.5l3.1,5.2 M278.3,201.8l4.4-7.5 M285.9,185.9l-3.2,8.4 M135.7,127.3l0.4-0.2 M250.5,231.3l9-5.8 M262.4,223.5l-2.9,2.1
	 M57.7,213l-6.2-6.9 M48.4,199.4l3.1,6.8 M72,227.6l-8.4-6.1 M60.7,218l3,3.5 M242.1,216L242.1,216 M235.1,190.8l2.7-4.6
	 M234.6,180.4l3.1,5.8 M90.3,205l-1.7,2.8 M92.3,189.3l-3.1,5.6 M93.2,199.6l-4.1-4.6 M104.3,152.7l-3.1,5.9 M99.7,162.7l1.5-4.1
	 M38.6,173l-0.4-8 M99.7,162.7l-3.2,6 M96.6,173l-0.1-4.3 M106,150.7l0.2-0.2 M169,119.3h-0.4 M233.5,201l4.7-4.4 M235.1,190.8
	l3,5.7 M153.7,116.3l-0.4,2.1 M153,119.7h0.2 M236.3,206.5l1.2,2.1 M96.6,173l-3.2,6 M95.3,183.4l-1.9-4.4 M253.2,229.4l9.2-6
	 M265.2,220l-2.9,3.5 M268.1,215.2l7.2-6.8 M278.3,201.8l-3,6.6 M228.8,164l-1-4.1 M224.7,154l3.1,6 M202.1,130.1l-0.4-0.2
	 M83.1,233.2l-5.5-2.9 M45.3,191l-3.5-7.6 M38.6,173l3.2,10.4 M231.4,174.3l0.7-4.3 M228.8,164l3.3,6 M93.2,199.6l-3,5.4
	 M96.6,209.6l-6.3-4.4 M231.9,231.5l1.1-0.5 M69.4,224.3l-8.8-6.3 M57.7,213l2.9,5 M215.6,141.3l-0.3-0.2 M184.3,116l0.1,0.2
	 M95.3,183.4l-3,6 M96.2,193.8l-3.9-4.4 M232,184.8l2.6-4.4 M231.4,174.3l3.2,6 M289,175.5l1.3-8 M85.4,234.9l-10.6-5.3 M72,227.6
	l2.8,2 M248.1,232h-0.2 M230.4,210.3l5.9-3.8 M233.5,201l2.8,5.5 M54.8,206.5l-6.4-7.2 M45.3,191l3.1,8.4 M230.6,195.2l4.5-4.4
	 M232,184.8l3,6 M205.1,127l0.2,0.5 M281.3,193.4l4.5-7.5 M289,175.5l-3.1,10.3 M102.9,156.5l-3.2,6.1 M99.8,166.8l-0.2-4.1
	 M107.5,146.8l-3.1,5.9 M102.9,156.5l1.4-3.8 M96.2,193.8l-3,5.9 M99.1,204l-5.9-4.4 M255.7,226.2l9.6-6.1 M268.1,215.2l-2.8,4.9
	 M96.6,209.6l-0.3,0.4 M99.8,166.8l-3.2,6.1 M98.4,177.2l-1.9-4.3 M109,144.9l0.4-0.4 M239.3,236.5l11.2-5.1 M253.2,229.4l-2.7,2
	 M83,233.1l-10.8-5.5 M69.4,224.3l2.7,3.3 M225.6,157.9l-0.9-3.9 M221.5,147.9l3.2,6 M228.2,168.1l0.6-4.1 M225.6,157.9l3.2,6.1
	 M98.4,177.2l-3.1,6.2 M99.1,187.6l-3.8-4.2 M226.9,205.2l6.6-4.2 M230.6,195.2l2.9,5.9 M115.7,135.7l0.4-0.2 M271,208.8l7.3-7
	 M281.3,193.4l-3,8.4 M228.9,178.5l2.5-4.2 M228.2,168.1l3.2,6.2 M66.7,219.5l-9-6.5 M54.8,206.5l3,6.5 M204.2,126.7l-0.4-0.2
	 M198.8,123.2l0.6,1.4 M99.1,204l-2.7,5.6 M98.2,210.4l-1.6-0.9 M230.3,232.3l0.2,0.2 M99.9,239.9l-0.4-0.2 M99.1,187.6l-3,6.1
	 M101.9,197.9l-5.7-4.2 M147.5,111v0.2 M143.9,116.2l0.4-0.1 M227.7,189l4.4-4.1 M228.9,178.5l3.1,6.3 M241.5,234.7l11.5-5.2
	 M255.7,226.2l-2.6,3.3 M184.5,116.1l-0.3-0.1 M226.9,205.2l2.5,5.3 M106.1,150.4l-3.2,6.1 M103,160.4l-0.2-3.9 M258.3,221.5
	l9.8-6.3 M271,208.8l-2.9,6.4 M42.1,180.8l-3.6-7.9 M103,160.4l-3.2,6.4 M101.6,170.8l-1.8-4 M110.6,140.8l-3.1,5.9 M106.1,150.4
	l1.3-3.6 M224.3,199.2l6.3-4.1 M227.7,189l2.9,6.2 M97.9,239.5l-12.5-4.6 M83,233.1l2.4,1.8 M80.6,229.9l-11.2-5.6 M66.7,219.5
	l2.8,4.8 M202.5,121.8l0.1,0.2 M101.9,197.9l-2.8,6 M106.9,207.8l-7.7-3.8 M189.4,112.8l0.2,0.5 M101.6,170.8l-3.1,6.4 M102.1,181.2
	l-3.6-4.1 M116.3,131.8l-0.4,1 M112.1,138.9l0.4-0.5 M225,161.7l0.6-3.8 M222.4,151.6l3.2,6.3 M51.8,198.3l-6.5-7.3 M42.1,180.8
	l3.1,10.2 M222.4,151.6l-0.9-3.6 M218.3,142l3.2,6 M225.9,172.1l2.3-4 M225,161.7l3.2,6.4 M218.8,208.9l8.1-3.7 M224.3,199.2l2.6,6
	 M102.1,181.2l-2.9,6.4 M104.6,191.6l-5.5-4 M112.3,242l-1.8-0.4 M99.9,239.9l0.3-0.1 M226.1,240.8l13.2-4.4 M241.5,234.7l-2.2,1.8
	 M224.8,182.5l4.1-4 M225.9,172.1l3,6.4 M106.9,207.8l-1.8,4.2 M243.9,231.6l11.8-5.4 M258.3,221.5l-2.7,4.7 M122.9,123.5l-0.3,0.4
	 M161.9,105.3v0.2 M284.5,183.3l4.5-7.8 M64,213.1l-9.2-6.7 M51.8,198.3l3,8.2 M95.9,237.8l-13-4.8 M80.6,229.9l2.3,3.2
	 M113.8,243.6l-1.7-0.4 M104.6,191.6l-2.8,6.4 M109.3,201.7L102,198 M212.8,242.8l9.6-2.3 M175.3,105.9l0.2,1 M221.7,192.9l6-3.9
	 M224.8,182.5l2.9,6.4 M218.8,208.9l1.4,3.7 M273.9,200.6l7.5-7.2 M284.5,183.3l-3.1,10.1 M106.2,154l-3.2,6.4 M104.7,164.3
	l-1.7-3.8 M109.4,144.4l-3.2,6 M106.2,154l-0.2-3.6 M104.7,164.3l-3.1,6.5 M105.1,174.7l-3.5-3.9 M209.9,244.6l1.9-0.4 M216.6,202.7
	l7.8-3.5 M221.7,192.9l2.7,6.4 M113.7,134.9l-3.1,5.9 M109.4,144.4l1.2-3.5 M228,239.1l13.5-4.4 M243.9,231.6l-2.3,3.1 M109.3,201.7
	l-2.3,6.1 M116,211.2l-9.1-3.4 M78.2,225.4l-11.5-5.9 M64,213.1l2.8,6.4 M105.1,174.7l-3,6.6 M107.3,185l-5.2-3.7 M112.2,243.3
	l-14.3-3.7 M95.9,237.8l2,1.7 M260.9,215.2l10-6.4 M273.9,200.6l-2.9,8.2 M200,116.6l0.1,0.2 M221.7,155.2l0.6-3.6 M219.2,145.3
	l3.2,6.2 M222.8,165.5l2.1-3.8 M221.7,155.2l3.2,6.4 M119.3,126.2l-0.6,1.2 M115.3,133l0.4-0.5 M113.9,243.6l0.3-0.2 M219.2,145.3
	l-0.9-3.4 M215.1,136l3.1,5.9 M221.9,175.8l3.9-3.7 M222.8,165.5l3,6.6 M187.7,108.6l0.1,0.3 M209.2,212.1l9.6-3.2 M216.6,202.7
	l2.2,6.2 M116,211.2l-0.9,2.6 M107.3,185l-2.7,6.6 M111.7,195.2l-7-3.5 M93.9,234.8l-13.2-4.9 M78.2,225.4l2.4,4.5 M219.1,186.2
	l5.7-3.6 M221.9,175.8l2.9,6.7 M211.4,244.3l14.7-3.5 M228,239.1l-2,1.7 M246.2,227l12.3-5.6 M260.9,215.2l-2.6,6.3 M129,246.4
	l-15.1-2.8 M112.2,243.3l1.6,0.3 M125.5,118.2l-0.3,0.4 M122.1,123.9l0.4-0.2 M209.2,212.1l0.7,2.1 M111.7,195.2l-2.4,6.5
	 M118,204.9l-8.8-3.3 M214.3,196.2l7.4-3.4 M219.1,186.2l2.6,6.7 M161.8,105.3h0.2 M200,116.6l-0.4-0.2 M110.7,241.7l-14.8-3.8
	 M93.9,234.8l2,3 M109.4,147.7l-3.2,6.4 M107.8,157.7l-1.6-3.6 M194.5,247l15.5-2.4 M211.4,244.3l-1.4,0.3 M107.8,157.7l-3.1,6.6
	 M108,168l-3.3-3.6 M229.9,236.2l14-4.6 M246.2,227l-2.2,4.5 M118,204.9l-2,6.3 M126.4,213.9l-10.4-2.8 M112.6,138.1l-3.2,6.1
	 M109.4,147.7l-0.2-3.4 M174.5,102l0.1,0.4 M207.3,205.8l9.1-3 M214.3,196.2l2.2,6.5 M189.7,233.2L189.7,233.2 M189.7,233.2
	L189.7,233.2 M48.9,188.3l-6.7-7.5 M129.1,246.2l0.2-0.1 M108,168l-3,6.8 M110.1,178.3l-5-3.6 M117,129.2l-3.2,5.8 M112.6,138.1
	l1.2-3.3 M148.4,106.5l0.4-0.1 M61.3,205.2l-9.5-6.8 M48.9,188.3l3,10 M126.4,213.9l-0.4,1.4 M179.8,234.1l9.9-0.9 M127.9,246.1
	l-15.7-2.8 M110.7,241.7l1.5,1.6 M129.6,116l0.4-0.2 M110.1,178.3l-2.8,6.8 M114.1,188.4l-6.8-3.4 M198.5,214.6l10.7-2.5
	 M207.3,205.8l1.9,6.4 M219.7,158.8l2.1-3.6 M218.6,148.8l3.1,6.4 M187.4,108l-0.7-0.2 M218.6,148.8l0.5-3.5 M215.9,139.3l3.2,6
	 M212.8,242.7l15.2-3.5 M229.9,236.2l-1.9,2.9 M219.1,169.1l3.8-3.6 M219.7,158.8l3.1,6.7 M216.5,179.3l5.5-3.5 M219.1,169.1
	l2.9,6.8 M114.1,188.4l-2.4,6.8 M120,198.3l-8.4-3.1 M198.5,214.6l0.4,1.2 M197.4,111.7l0.2,0.3 M145.1,248l-16.1-1.8 M127.9,246.1
	l1.1,0.2 M215.9,139.3l-0.8-3.3 M212,130.1l3.2,5.9 M75.8,219.2l-11.8-6 M61.3,205.2l2.7,8 M122.2,120.7l-0.2,0.4 M118.7,127
	l0.4-0.5 M161.8,247.1L161.8,247.1 M161.2,234.7h-0.6 M195.3,246.8l16-2.5 M212.8,242.7l-1.4,1.6 M145.2,247.9L145.2,247.9
	 M212,189.4l7.2-3.3 M216.5,179.3l2.7,6.8 M120,198.3l-2,6.7 M128,207.5l-9.9-2.6 M188.1,108.3l-0.6-0.2 M178.2,248.4l16.3-1.4
	 M195.3,246.8l-0.9,0.2 M195.3,246.8l-0.9,0.2 M91.9,230.4l-13.7-5 M75.8,219.2l2.4,6.2 M161.6,248.7l0.1-1 M205.6,199.1l8.8-2.9
	 M212,189.4l2.3,6.8 M276.8,190.6l7.7-7.4 M128,207.5l-1.6,6.4 M137.8,216l-11.5-2 M137.8,216l-0.2,0.7 M263.6,207.2l10.3-6.7
	 M276.8,190.6l-2.9,9.9 M197,208.2l10.3-2.5 M205.6,199.1l1.9,6.7 M109.1,238.8l-15.2-4 M91.9,230.4l2,4.4 M125.1,118.6l0.4-0.4
	 M161.6,248.7L145,248 M144.4,247.9l0.5,0.2 M111,151.1l-3.1,6.6 M111,161.2l-3.1-3.5 M186.8,216.5l11.6-1.8 M197,208.2l1.4,6.4
	 M112.7,141.5l-3.2,6.2 M111,151.1l-1.5-3.4 M186.8,216.5l0.1,0.4 M186.8,216.5l0.1,0.4 M111,161.2l-3,6.8 M112.8,171.4l-4.7-3.4
	 M126.8,244.6l-16.1-2.8 M109.1,238.8l1.6,2.9 M248.4,220.9l12.5-5.8 M263.6,207.2l-2.7,8 M161.6,248.7l16.6-0.4 M178.6,248.2
	l-0.4,0.2 M144.4,247.9l-16.6-1.8 M126.8,244.6l1.1,1.5 M115.7,132.2l-3.2,6 M112.7,141.5l-0.2-3.3 M112.8,171.4l-2.8,6.9
	 M116.4,181.5l-6.4-3.2 M197.4,111.7l-0.5-0.2 M161.5,248.6l0.1,0.2 M174.1,101.6l-0.4-0.1 M231.8,231.8l14.4-4.8 M248.4,220.9
	l-2.2,6 M116.4,181.5l-2.3,6.9 M122.1,191.4l-8-2.9 M149.9,217.3v0.2 M178.6,248.2l16.7-1.4 M196.3,245.3l-1,1.4 M196.3,245.3
	l-1,1.4 M156.6,97.5l-0.1,0.3 M153.1,101.7h0.2 M216.1,162.2l3.5-3.4 M216.7,152.2l3,6.7 M216.7,152.2l2-3.4 M215.4,142.5l3.2,6.3
	 M174.7,217.5L174.7,217.5 M214.3,239.9l15.6-3.6 M231.8,231.8l-1.9,4.4 M120.1,123.5l-3.1,5.6 M115.7,132.2l1.2-3 M122.1,191.4
	l-2,6.8 M129.6,200.8l-9.6-2.5 M196.3,245.3l16.5-2.6 M214.3,239.9l-1.4,2.8 M213.9,172.4l5.1-3.3 M216.1,162.2l2.9,6.8
	 M138.9,209.5l-1.1,6.5 M149.9,217.3l-12.1-1.3 M129.6,200.8l-1.6,6.8 M138.9,209.5l-10.9-2 M162.2,217.7L162.2,217.7 M215.4,142.5
	l0.5-3.3 M212.7,133.2l3.3,6 M209.7,182.4l6.8-3.1 M213.9,172.4l2.6,6.9 M150.4,100.5l-0.3,0.6 M149.7,102.2l0.3-0.1 M134,108
	l-0.9,1.6 M186,209.9l0.9,6.5 M174.7,217.5l12.2-1 M186,209.9l0.9,6.5 M203.6,192.2l8.4-2.8 M209.7,182.4l2.2,7 M184.9,103.5
	l-0.4-0.1 M161.5,248.6l-17.1-0.7 M143.8,246.4l0.6,1.3 M195.6,201.4l9.9-2.3 M203.6,192.2l1.9,6.9 M186,209.9l11.1-1.8
	 M195.6,201.4l1.4,6.8 M212.7,133.2l-0.7-3.1 M208.8,124.5l3.2,5.6 M125.3,115.6l-3,5.1 M122.1,121.1l0.2-0.4 M161.5,248.6l17.1-0.4
	 M179.1,246.8l-0.4,1.3 M194.8,107.1l0.3,0.4 M150.4,210.7l-0.5,6.6 M162.2,217.7l-12.4-0.5 M161.4,247.1l0.1,1.3 M162.2,217.7
	l12.4-0.3 M174.2,211l0.4,6.5 M143.8,246.4l-17.1-1.9 M125.6,241.7l1.1,2.8 M162.3,211.2l-0.1,6.6 M140,202.6l-1.1,6.8 M150.4,210.7
	l-11.5-1.2 M113.9,154.4l-2.9,6.8 M115.4,164.4l-4.4-3.3 M114.1,144.7l-3.1,6.4 M113.9,154.4l-2.9-3.3 M115.4,164.4l-2.7,6.9
	 M118.8,174.5l-6-3.1 M115.9,135.3l-3.2,6.2 M114.1,144.7l-1.4-3.2 M131.1,193.8l-1.5,7 M140,202.6l-10.4-1.9 M118.8,174.5l-2.4,7
	 M124,184.3l-7.6-2.8 M125.6,241.7l-16.6-2.9 M107.5,234.4l1.6,4.4 M179.1,246.8l17.3-1.5 M197.3,242.5l-1,2.8 M197.3,242.5l-1,2.8
	 M124,184.3l-2,7.1 M131.1,193.8l-9.1-2.4 M185,203.1l1,6.8 M174.2,211l11.7-1 M185,203.1l1,6.8 M129,112l-0.7,1.1 M125.3,115.6
	l0.3-0.2 M107.5,234.4l-15.6-4.1 M89.9,224.3l1.9,6 M119,126.3l-3.3,5.9 M115.9,135.3l-0.2-3.1 M89.9,224.3l-14.1-5.2 M73.5,211.4
	l2.3,7.8 M73.5,211.4l-12.2-6.1 M58.5,195.4l2.8,9.9 M58.5,195.4l-9.8-7 M185,203.1l10.7-1.7 M194.2,194.4l1.4,7 M211.2,165.4
	l4.9-3.2 M213.2,155.5l2.9,6.8 M213.2,155.5l3.4-3.3 M213.5,145.6l3.1,6.6 M207.4,175.4l6.4-2.9 M211.2,165.4l2.7,6.9 M151.1,203.8
	l-0.6,6.8 M162.3,211.2l-11.9-0.5 M194.2,194.4l9.4-2.2 M201.7,185l1.9,7.1 M201.7,185l8-2.7 M207.4,175.4l2.2,7.1 M213.5,145.6
	l2-3.1 M212.2,136.2l3.2,6.3 M188.5,100.9l0.1,0.2 M197.3,242.5l17-2.6 M215.7,235.5l-1.3,4.4 M162.3,211.2l11.9-0.2 M173.8,204.1
	l0.4,6.9 M161.4,247.1l-17.6-0.7 M143.3,243.7l0.5,2.8 M123.2,118.1l-3.1,5.4 M119,126.3l1.1-2.8 M162.4,204.3l-0.1,6.8 M172.9,97.6
	h-0.2 M169.7,97.4h-0.4 M212.2,136.2l0.4-3 M209.5,127.3l3.2,5.9 M161.4,247.1l17.6-0.4 M179.4,244l-0.4,2.8 M215.7,235.5l16.1-3.7
	 M233.7,225.8l-2,6 M141.1,195.5l-1.1,7.1 M151.1,203.8l-11.1-1.1 M161.3,244.5l0.1,2.8 M233.7,225.8l14.8-4.9 M250.7,213.1
	l-2.2,7.8 M209.5,127.3l-0.7-2.8 M205.6,119l3.1,5.5 M184.1,196l1,7.1 M173.8,204.1l11.2-1 M184.1,196l1,7.1 M132.7,186.6l-1.6,7.2
	 M141.1,195.5l-9.9-1.8 M250.7,213.1l13-6 M266.1,197.5l-2.6,9.8 M126.3,113.9l-1.1,1.7 M182.5,99.2l-0.4-0.1 M126.1,177.1l-2,7.2
	 M132.7,186.6l-8.7-2.3 M195.7,107.5l-0.9-0.5 M192.3,102.6l0.5,1 M266.1,197.5l10.7-6.8 M121.3,167.4l-2.4,7.1 M126.1,177.1
	l-7.2-2.7 M118.1,157.5l-2.8,6.9 M121.3,167.4l-5.8-2.9 M143.3,243.7l-17.6-1.9 M124.5,237.5l1.1,4.3 M116.9,147.7l-3,6.8
	 M118.1,157.5l-4.3-3 M151.6,196.7l-0.5,7.2 M162.4,204.3l-11.4-0.5 M184.1,196l10.1-1.6 M192.8,187.2l1.3,7.2 M117.3,138.3
	l-3.1,6.4 M116.9,147.7l-2.8-3 M162.4,204.3l11.5-0.3 M173.3,196.9l0.4,7.2 M145.2,99.3l0.7-0.2 M200.8,111.3l1.2,1.9 M162.5,197.1
	l-0.1,7.2 M119.1,129.2l-3.2,6 M117.3,138.3l-1.3-3 M192.8,187.2l9-2.1 M199.8,177.9l1.9,7.2 M179.4,244l17.9-1.6 M198.3,238.3
	l-1,4.2 M198.3,238.3l-1,4.2 M199.8,177.9l7.6-2.5 M205.1,168.2l2.3,7.2 M205.1,168.2l6.1-2.8 M208.7,158.4l2.6,7 M208.7,158.4
	l4.6-2.9 M210.4,148.6l2.9,6.8 M122.2,120.6l-3.2,5.6 M119.1,129.2l-0.1-2.9 M210.4,148.6l3.1-3 M210.4,139.3l3,6.4 M142.2,188.2
	l-1.1,7.3 M151.6,196.7l-10.6-1.1 M124.5,237.5l-17.1-3 M106,228.6l1.5,6 M210.4,139.3l1.8-3 M209,130.2l3.2,6 M140.9,100.6l0.4-0.2
	 M183.1,188.7l1,7.3 M173.3,196.9L184,196 M183.1,188.7l1,7.3 M161.3,244.5l-18.1-0.8 M142.6,239.4l0.6,4.2 M134.2,179.3l-1.5,7.3
	 M142.2,188.2l-9.5-1.7 M209,130.2l0.4-2.9 M206.3,121.5l3.2,5.7 M189.1,101.3l-0.4-0.2 M126.4,112.9l-3.2,5.1 M122.2,120.6l1-2.6
	 M161.3,244.5l18.1-0.4 M180,239.8l-0.4,4.3 M152.3,189.3l-0.6,7.3 M162.5,197.1l-10.8-0.5 M128.1,169.9l-2,7.3 M134.2,179.3
	l-8.2-2.1 M198.3,238.3l17.4-2.8 M217.1,229.7l-1.4,5.9 M162.5,197.1l10.8-0.3 M173,189.6l0.4,7.3 M106,228.6l-16-4.2 M87.9,216.6
	l2,7.7 M168.8,93.7h-0.2 M161.3,240.2l0.1,4.2 M183.1,188.7l9.8-1.5 M191.3,179.9l1.4,7.3 M162.6,189.8l-0.1,7.4 M123.7,160.3
	l-2.4,7.2 M128.1,169.9l-6.8-2.5 M156.4,93.9l0.8-0.1 M206.3,121.5l-0.6-2.6 M202.4,113.7l3.2,5.2 M120.9,150.6l-2.8,6.8
	 M123.7,160.3l-5.5-2.8 M137.1,102.1l0.2-0.1 M119.8,141.3l-3,6.5 M120.9,150.6l-4-2.9 M191.3,179.9l8.4-2 M197.9,170.6l1.9,7.3
	 M120.5,132l-3.1,6.3 M119.8,141.3l-2.6-2.9 M87.9,216.6l-14.5-5.2 M71.1,201.8l2.4,9.6 M197.9,170.6l7.2-2.4 M202.9,161.1l2.2,7.2
	 M143.3,180.9l-1.1,7.4 M152.3,189.3l-10-1.1 M193,103.1l-0.7-0.4 M202.9,161.1l5.8-2.6 M206,151.5l2.7,6.9 M122.3,123.4l-3.2,5.9
	 M120.5,132l-1.2-2.8 M217.1,229.7l16.6-3.9 M235.5,218.1l-1.9,7.6 M202.4,113.7l-1.6-2.4 M197.7,106.5l3,4.8 M182.1,181.2l1,7.5
	 M173,189.6l10.1-0.9 M182.1,181.2l1,7.5 M206,151.5l4.4-2.8 M207.4,142.1l2.9,6.6 M207.4,142.1l3-2.8 M207.3,132.9l3,6.4
	 M142.6,239.4l-18.1-2 M123.5,231.7l1.1,5.8 M71.1,201.8l-12.4-6.4 M135.8,171.9l-1.6,7.4 M143.3,180.9l-9-1.6 M181.1,93.9l0.3,0.4
	 M125.5,115.3l-3.2,5.3 M122.3,123.4l-0.1-2.7 M152.8,181.9l-0.5,7.5 M162.6,189.8l-10.3-0.4 M207.3,132.9l1.6-2.8 M205.7,124.2
	l3.2,5.9 M162.6,189.8l10.4-0.2 M172.4,182.1l0.4,7.5 M162.7,182.4l-0.1,7.5 M180,239.8l18.3-1.5 M199.2,232.4l-0.9,5.9
	 M199.2,232.4l-0.9,5.9 M182.1,181.2l9.2-1.3 M189.9,172.4l1.4,7.5 M130.1,162.6l-2,7.2 M135.8,171.9l-7.8-2.1 M235.5,218.1l15.1-5
	 M253,203.5l-2.3,9.6 M145.5,93.1l-0.4,0.7 M205.7,124.2l0.4-2.7 M203,116.1l3.2,5.4 M129.5,108l-3.1,4.9 M125.5,115.3l0.9-2.5
	 M126,153.2l-2.3,7 M130.1,162.6l-6.4-2.4 M189.9,172.4l8.1-1.9 M196.1,163.3l1.9,7.3 M123.6,143.9l-2.7,6.8 M126,153.2l-5.1-2.6
	 M144.4,173.4l-1.1,7.5 M152.8,181.9l-9.6-1 M122.9,134.8l-3,6.4 M123.6,143.9l-3.7-2.7 M161.3,240.2l-18.6-0.8 M142,233.6l0.5,5.8
	 M203,116.1l-0.6-2.5 M199.2,108.7l3.1,5 M162.8,87.6l-0.1,0.8 M161.8,90.4h0.2 M196.1,163.3l6.8-2.2 M200.6,154l2.2,7.1
	 M168.4,90.5l-0.5-0.1 M253,203.5l13.2-6 M181.2,173.9l0.9,7.5 M172.4,182.1l9.7-0.9 M181.2,173.9l0.9,7.5 M161.3,240.2l18.6-0.4
	 M180.3,234.1l-0.4,5.7 M123.5,231.7l-17.5-3.2 M104.3,220.9l1.6,7.5 M158.2,89.6l-0.3,1 M157.7,90.7l0.4-0.1 M123.6,126.1l-3.1,6
	 M122.9,134.8l-2.4-2.8 M172.2,90.8l-0.4-0.1 M171.5,89.6l0.1,0.3 M142.1,94.4l-0.7,1 M200.6,154l5.4-2.5 M203.4,144.7l2.6,6.8
	 M161.2,234.5l0.1,5.7 M203.4,144.7l4-2.6 M204.6,135.6l2.9,6.5 M153.5,174.4l-0.6,7.5 M162.7,182.4l-9.8-0.4 M125.5,117.8l-3.2,5.6
	 M123.6,126.1l-1.2-2.7 M137.5,164.5l-1.6,7.4 M144.4,173.4l-8.5-1.5 M162.7,182.4l9.8-0.2 M172.1,174.6l0.4,7.5 M177.5,91.6
	l-0.5-0.1 M174.9,88.5l0.4,0.6 M199.2,108.7l-1.5-2.1 M194.6,102.1l3,4.4 M204.6,135.6l2.8-2.7 M204.2,126.9l3.1,6 M162.7,174.8
	l-0.1,7.5 M181.2,173.9l8.7-1.3 M188.5,165.1l1.4,7.4 M199.2,232.4l17.9-2.8 M218.5,222.1l-1.4,7.5 M128.7,110.2l-3.2,5.1
	 M125.5,117.8l-0.1-2.5 M132.1,155.5l-2,7.2 M137.5,164.5l-7.4-1.9 M204.2,126.9l1.5-2.6 M202.5,118.6l3.2,5.6 M178.6,89.3l0.1,0.2
	 M139.4,95.9l-1.3,1.9 M135.3,100.7l0.4-0.3 M128.4,146.3l-2.4,6.9 M132.1,155.5l-6.1-2.2 M188.5,165.1l7.6-1.8 M194.2,156l1.9,7.2
	 M104.3,220.9l-16.4-4.4 M85.9,207.2l2,9.5 M202.5,118.6l0.4-2.5 M199.7,111l3.3,5.2 M145.5,166l-1.1,7.5 M153.5,174.4l-9.1-1
	 M126.3,137.3l-2.8,6.7 M128.4,146.3l-4.8-2.4 M132.7,103.4l-3.2,4.6 M128.7,110.2l0.8-2.1 M193,100.6l-0.4-0.4 M146.1,92l-0.6,1.1
	 M145.1,93.2l0.4-0.2 M180.2,166.4l1,7.5 M172.1,174.6l9.1-0.8 M180.2,166.4l1,7.5 M194.2,156l6.4-2.1 M198.3,146.9l2.3,7
	 M125.8,128.5l-3,6.3 M126.3,137.3l-3.5-2.5 M182.2,90.8l0.4,0.7 M199.7,111l-0.4-2.2 M196.1,104l3.2,4.6 M154,166.9l-0.5,7.5
	 M162.7,174.8l-9.2-0.4 M198.3,146.9l5.1-2.2 M200.8,138.1l2.7,6.7 M142,233.6l-18.6-2 M122.3,224.2l1.1,7.5 M126.7,120.2l-3.1,5.9
	 M125.8,128.5l-2.2-2.4 M162.7,174.8l9.3-0.2 M171.5,167.1l0.4,7.5 M139,157.2l-1.5,7.3 M145.5,166l-8.1-1.4 M162.8,167.3l-0.1,7.5
	 M166.9,87.6h-1.4 M165.4,87.6H164 M160.9,87.7l1.6-0.1 M200.8,138.1l3.8-2.5 M201.7,129.3l2.8,6.3 M218.5,222.1l17-4 M237.4,208.7
	l-2,9.5 M137.2,97.5l-1.9,2.6 M141.7,94.6l0.4-0.2 M128.8,112.6l-3.2,5.2 M126.7,120.2l-1.1-2.4 M180.2,166.4l8.2-1.3 M187,157.7
	l1.4,7.4 M174.2,88.4l-0.4-0.1 M180.3,234.1l18.8-1.7 M200.1,225l-1,7.5 M200.1,225l-1,7.5 M201.7,129.3l2.5-2.5 M201.2,121l3,5.9
	 M85.9,207.2L71,201.7 M134,148.4l-2,7.1 M139,157.2l-6.9-1.8 M185.4,92.5l0.8,1.1 M196.1,104l-1.3-1.9 M191.7,98.1l3,4.1
	 M178.6,89.3l-0.6-0.2 M201.2,121l1.3-2.4 M199.4,113.2l3.1,5.4 M131.9,105.5l-3.2,4.8 M128.8,112.6l-0.1-2.3 M146.6,158.7l-1.1,7.4
	 M154,166.9l-8.5-1 M130.8,139.6l-2.4,6.8 M134,148.4l-5.7-2.1 M187,157.7l7.2-1.7 M192.3,149l1.9,7.1 M179.3,158.9l1,7.5
	 M171.5,167.1l8.7-0.7 M179.3,158.9l1,7.5 M161.2,234.5l-19.2-0.9 M141.4,226.2l0.6,7.5 M138.6,96.4l0.8-0.6 M178.9,89.4l-0.4-0.2
	 M178.2,88.8l0.4,0.5 M129,130.9l-2.8,6.4 M130.8,139.6l-4.5-2.3 M199.4,113.2l0.4-2.2 M196.5,106.2l3.2,4.8 M192.3,149l5.9-2
	 M196.1,140.2l2.2,6.8 M161.2,234.5l19.2-0.4 M180.9,226.6l-0.4,7.5 M135.8,99.2l-3.1,4.2 M131.9,105.5l0.8-2 M154.6,159.5l-0.5,7.5
	 M162.8,167.3l-8.8-0.4 M128.7,122.5l-2.9,5.9 M129,130.9l-3.2-2.4 M190.6,97.1l-0.9-0.8 M162.8,167.3l8.8-0.2 M171.2,159.6l0.4,7.5
	 M237.4,208.7l15.5-5.1 M140.6,150l-1.6,7.2 M146.6,158.7l-7.6-1.3 M161.1,227.1l0.1,7.5 M196.1,140.2l4.7-2.1 M198.2,131.6l2.6,6.5
	 M162.9,159.8l-0.1,7.5 M129.8,114.7l-3.1,5.5 M128.7,122.5l-2-2.3 M196.5,106.2l-0.4-2.1 M192.8,99.8l3.2,4.3 M179.6,87.5l0.6,0.9
	 M122.3,224.2l-18-3.3 M102.8,211.5l1.5,9.4 M179.3,158.9l7.7-1.2 M185.7,150.6l1.3,7.2 M198.2,131.6l3.6-2.2 M198.8,123.2l2.9,6
	 M132,107.5l-3.2,5 M129.8,114.7l-1.1-2.1 M136.1,141.5l-2,6.8 M140.6,150l-6.5-1.7 M140.3,93.9l-3,3.6 M135.8,99.2l1.3-1.8
	 M198.8,123.2l2.3-2.2 M198.1,115.4l3,5.6 M166.2,85.2l-3.2-0.1 M163.1,83.2l-0.2,1.9 M161.9,85.2l1.1-0.1 M144.2,91.3l0.4-0.3
	 M169,85.4h-0.5 M167.4,85.3l-0.9-0.1 M166.3,83.4l0.1,0.5 M147.7,151.3l-1.1,7.3 M154.6,159.5l-8.1-0.9 M169.6,84l0.1,0.3
	 M169.9,85.1l0.2,0.3 M192.8,99.8l-1.1-1.8 M188.6,94.4l3,3.6 M185.7,150.6l6.7-1.6 M190.5,142.1l1.9,6.9 M186.9,92.8l-2.3-1.3
	 M182,88.6l0.4,0.4 M133.2,133l-2.3,6.6 M136.1,141.5l-5.3-1.9 M198.1,115.4l1.2-2.2 M196.2,108.2l3.2,5 M200.1,225l18.4-2.9
	 M220,212.8l-1.4,9.3 M135.1,101l-3.2,4.4 M132,107.5l-0.1-2.1 M178.4,151.6l1,7.3 M171.2,159.6l8.1-0.7 M178.4,151.6l1,7.3
	 M155.1,85.9l0.8-0.2 M172.2,83.8l0.1,0.2 M172.8,84.8l0.4,0.6 M131.7,124.6l-2.8,6.2 M133.2,133l-4.1-2.1 M190.5,142.1l5.5-1.8
	 M193.7,133.5l2.2,6.7 M155.3,152.1l-0.6,7.4 M162.9,159.8l-8.3-0.3 M196.2,108.2l0.4-2 M193.3,101.6l3.2,4.4 M153.3,85.5l-0.7,0.9
	 M151.5,86.6l1.1-0.3 M162.9,159.8l8.3-0.2 M170.6,152.3l0.4,7.4 M141.5,92.9l0.6-0.5 M131.6,116.8l-3,5.6 M131.7,124.6l-3-2.1
	 M163,152.5l-0.1,7.3 M177.5,86.9l-0.7-0.2 M176.2,86l0.4,0.6 M142.1,143.1l-1.5,6.9 M147.7,151.3l-7.1-1.3 M139,95.4l-3.1,3.8
	 M135.1,101l0.7-1.8 M193.7,133.5l4.4-2 M195.5,125.4l2.7,6.2 M188.6,94.4l-1.7-1.5 M184.1,89.7l0.7,0.7 M178.4,151.6l7.3-1.1
	 M184.2,143.6l1.4,7 M133,109.5l-3.1,5.1 M131.6,116.8l-1.9-2.1 M149.4,87.3l0.2-0.1 M193.3,101.6l-0.4-1.9 M189.7,96l3.1,3.8
	 M195.5,125.4l3.3-2.1 M196,117.5l2.9,5.7 M180.3,87.8l-0.7-0.3 M138.1,134.8l-2,6.8 M142.1,143.1l-6-1.6 M102.8,211.5l-16.9-4.4
	 M135.2,102.9l-3.2,4.6 M133,109.5l-1-2 M141.4,226.2l-19.1-2 M121.3,214.9l1.1,9.3 M196,117.5l2.1-2.1 M195,110.2l3.1,5.2
	 M148.8,144.3l-1.1,7.1 M155.3,152.1l-7.6-0.8 M143.3,90.7l-3,3.2 M139,95.4l1.2-1.5 M184.2,143.6l6.3-1.5 M188.6,135.3l1.9,6.8
	 M149.5,85.8l-1.2,1.1 M146.7,88.5l0.4-0.2 M135.6,126.6l-2.4,6.4 M138.1,134.8l-5-1.8 M177.5,144.5l0.9,7.1 M170.6,152.3l7.6-0.6
	 M177.5,144.5l0.9,7.1 M165.2,83.2h-2.1 M163.2,82.4l-0.1,0.7 M162.5,83.2h0.6 M195,110.2l1.2-1.9 M192.9,103.5l3.2,4.7 M167.6,83.3
	l-0.4-0.1 M166.6,83.2l-0.4-0.1 M166,82.5l0.2,0.6 M189.7,96l-1.1-1.6 M185.6,91.2l3,3.3 M138.4,97l-3.3,4 M135.2,102.9l-0.1-1.9
	 M180.9,226.6l19.3-1.7 M201.1,215.7l-1,9.3 M201.1,215.7l-1,9.3 M157.5,83.6l1.1-0.1 M183.1,89.2l-1.1-0.6 M179.5,86.2l1.1,1.1
	 M172.2,83.8l-0.8-0.1 M170.7,83.7l-1.5-0.2 M168.5,82.1l0.1,0.2 M168.8,82.4l0.1,0.2 M155.8,145.1l-0.5,7.1 M163,152.5l-7.7-0.4
	 M134.4,118.8l-2.7,5.9 M135.6,126.6l-3.8-1.9 M188.6,135.3l5.2-1.8 M191.4,127.2l2.3,6.4 M163,152.5l7.7-0.2 M170.3,145.2l0.4,7.2
	 M158,82.4l-0.4,0.6 M154.3,84.2L155,84 M163.1,145.3l-0.2,7.2 M170.8,82.3l0.4,0.5 M171.4,82.9l0.4,0.4 M192.9,103.5l0.4-1.8
	 M190.1,97.6l3.2,4.1 M220,212.8l17.4-4.1 M143.7,136.2l-1.6,6.8 M148.8,144.3l-6.7-1.1 M134.7,111.4l-3,5.4 M134.4,118.8l-2.8-1.9
	 M144.4,89.8l0.4-0.4 M191.4,127.2l4.1-1.9 M192.9,119.4l2.6,5.9 M155.1,83.4l-0.8,0.9 M153.6,84.4l0.7-0.2 M142.1,92l-3.1,3.4
	 M138.4,97l0.5-1.7 M177.5,144.5l6.8-1 M182.7,136.6l1.4,6.8 M173.2,82.7l1.3,1.3 M136,104.8l-3,4.9 M134.7,111.4l-1.7-1.9
	 M185.6,91.2l-1.5-1.3 M181.2,87.2l2.8,2.6 M161.1,227.1l-19.7-0.9 M140.9,216.9l0.5,9.2 M192.9,119.4l3-1.9 M193,112.1l2.9,5.4
	 M190.1,97.6l-0.4-1.6 M186.5,92.5l3.2,3.5 M140.1,128.3l-2,6.5 M143.7,136.2l-5.6-1.4 M161.1,227.1l19.7-0.4 M181.2,217.4l-0.4,9.2
	 M149.9,137.3l-1.1,6.8 M155.8,145.1l-7-0.8 M138.4,98.7l-3.2,4.2 M136,104.8l-0.8-1.8 M193,112.1l1.9-1.9 M192,105.3l3,4.9
	 M179.5,86.2l-2.1-1 M175.5,83.7l1.9,1.5 M182.7,136.6l5.8-1.3 M186.7,128.8l1.9,6.5 M176.5,137.6l1,6.9 M170.3,145.2l7.2-0.6
	 M176.5,137.6l1,6.9 M161.1,217.8l0.1,9.2 M146.2,87.9l-3,2.8 M142.1,92l1.1-1.3 M138,120.6l-2.4,6 M140.1,128.3l-4.6-1.7
	 M192,105.3l1.1-1.8 M189.7,99.2l3.2,4.3 M151.9,83.9l-2.4,1.9 M148.3,86.5l1.2-0.6 M186.5,92.5l-0.9-1.3 M182.5,88.3l3,2.8
	 M156.4,138.1l-0.6,7 M163.1,145.3l-7.3-0.2 M141.7,93.5l-3.2,3.6 M138.4,98.7V97 M137.2,113.3l-2.8,5.6 M138,120.6l-3.6-1.8
	 M163.1,145.3l7.2-0.2 M169.8,138.1l0.4,6.9 M186.7,128.8l4.7-1.6 M189.2,121.1l2.2,6 M181.2,87.2l-1.7-1 M178.6,85.4l1,0.7
	 M165.8,81.6h-2.5 M163.4,81.3v0.4 M160.8,81.8l2.6-0.2 M168.4,81.9l-2.6-0.2 M165.6,80.7l0.1,0.3 M163.2,138.3l-0.1,6.9
	 M161.3,81.1l-0.4,0.7 M159.7,81.9l1.1-0.2 M145.3,129.6l-1.6,6.6 M149.9,137.3l-6.2-1.1 M170.8,82.3l-2.4-0.4 M168.2,81.5l0.4,0.4
	 M189.7,99.2l0.4-1.7 M186.8,93.9l3.3,3.6 M137.6,106.4l-3,5 M137.2,113.3l-2.5-1.8 M158.8,81.6l-0.5,0.5 M157.1,82.4l1.2-0.3
	 M189.2,121.1l3.8-1.8 M190.3,113.8l2.7,5.6 M173.2,82.7l-2.3-0.5 M169.6,81.1l1.2,1.1 M176.5,137.6l6.3-1 M181.3,130l1.4,6.7
	 M150.4,84.7l-2.8,2.1 M146.2,87.9l1.4-1.1 M145.2,89.1l-3.1,2.9 M141.7,93.5l0.4-1.4 M121.3,214.9l-18.4-3.3 M139.2,100.3l-3.1,4.4
	 M137.6,106.4l-1.6-1.8 M154.4,83.1l1.6-0.5 M190.3,113.8l2.8-1.8 M190.2,107.1l2.9,5.1 M182.5,88.3l-1.2-1.1 M178.4,84.9l2.9,2.1
	 M142.1,122.2l-2,6.1 M145.3,129.6l-5.2-1.3 M175.2,83.4l-2-0.6 M172,81.9l1.2,0.8 M186.8,93.9l-0.4-1.3 M183.3,89.5l3.2,3
	 M151,130.7l-1.1,6.8 M156.4,138.1l-6.5-0.6 M190.2,107.1l1.8-1.8 M188.9,100.8l3,4.4 M141.7,94.9l-3.2,3.8 M139.2,100.3l-0.7-1.6
	 M155.9,81.8l-1,0.6 M151.9,83.9l1.9-0.7 M181.3,130l5.4-1.2 M184.9,122.6l1.9,6.2 M175.5,131l1,6.7 M169.8,138.1l6.6-0.6
	 M175.5,131l1,6.7 M140.4,114.9l-2.4,5.7 M142.1,122.2l-4.2-1.5 M177,84.1l-1.8-0.7 M174.1,82.6l1.1,0.7 M149.2,85.6l-3,2.2
	 M145.2,89.1l1-1.2 M201.1,215.7l18.9-2.9 M188.9,100.8l0.9-1.6 M186.5,95.3l3.2,3.9 M157.1,131.3l-0.5,6.8 M163.2,138.3l-6.8-0.3
	 M144.9,90.3l-3.2,3.2 M141.7,94.9v-1.4 M163.2,138.3l6.7-0.2 M169.4,131.5l0.4,6.8 M183.3,89.5l-0.7-1.1 M179.4,85.9l3,2.4
	 M139.9,108.1l-2.8,5.1 M140.4,114.9l-3.2-1.7 M184.9,122.6l4.4-1.4 M186.9,115.3l2.2,5.8 M154.5,82.4l-2.5,1.5 M150.4,84.7l1.5-0.8
	 M163.3,131.6l-0.1,6.8 M146.8,123.4l-1.5,6.2 M151,130.7l-5.7-1.1 M178.4,84.9L177,84 M174.4,82.6l2.6,1.5 M186.5,95.3l0.3-1.4
	 M183.5,90.7l3.2,3.2 M140.6,101.8l-3,4.6 M139.9,108.1l-2.2-1.7 M165.6,80.7h-2 M163.7,80.1l-0.2,0.5 M161.4,80.7l2.1-0.1
	 M186.9,115.3l3.4-1.5 M187.7,108.6l2.6,5.2 M167.5,80.8l-2-0.2 M165.2,80.1l0.4,0.5 M175.5,131l5.8-1 M179.9,123.8l1.4,6.3
	 M162.1,80.2l-0.4,0.3 M169.6,81.1l-2-0.4 M166.7,80.2l0.8,0.5 M148.5,86.5l-3.2,2.5 M144.9,90.3l0.4-1.1 M142.3,96.2l-3.1,4.1
	 M140.6,101.8l-1.4-1.5 M160.6,80.3l-1.2,0.6 M157.6,81.4l1.9-0.4 M153.1,83.1l-2.8,1.7 M149.2,85.6l1.2-1 M187.7,108.6l2.4-1.5
	 M187.3,102.3l2.9,4.7 M171.4,81.5l-1.8-0.4 M168.2,80.4l1.3,0.6 M144.2,116.3l-2,5.9 M146.8,123.4l-4.7-1.2 M179.4,85.9l-1.1-1
	 M175.5,83.3l2.8,1.7 M183.5,90.7l-0.4-1.2 M180.1,86.9l3.1,2.5 M159.3,80.7l-1.7,0.7 M155.9,81.8l1.7-0.4 M152.1,124.3l-1.1,6.4
	 M157.1,131.3l-6-0.6 M187.3,102.3l1.6-1.5 M185.7,96.8l3.1,4.1 M173,82l-1.7-0.5 M169.6,80.7l1.8,0.8 M144.9,91.5l-3.2,3.4
	 M142.3,96.2l-0.6-1.3 M179.9,123.8l5-1.1 M182.9,116.6l1.9,5.9 M174.6,124.6l1,6.4 M169.4,131.5l6.1-0.5 M174.6,124.6l1,6.4
	 M142.7,109.5l-2.3,5.3 M144.2,116.3l-3.8-1.3 M157.9,81l-2.1,0.8 M154.5,82.4l1.4-0.6 M152.3,83.8l-3,1.8 M148.5,86.5l0.7-1
	 M185.7,96.8l0.8-1.4 M183.4,92l3.1,3.4 M140.9,216.9l-19.6-2 M174.4,82.6L173,82 M170.7,81.1L173,82 M157.7,124.9l-0.6,6.4
	 M163.3,131.6l-6.3-0.3 M148.1,87.6l-3.2,2.7 M144.9,91.5v-1.2 M142.6,103.2l-2.7,4.9 M142.7,109.5l-2.8-1.4 M163.3,131.6l6.1-0.2
	 M169,125l0.4,6.4 M182.9,116.6l4-1.3 M184.7,110l2.2,5.3 M180.1,86.9l-0.6-1 M176.4,84l3,1.9 M163.4,125.2l-0.1,6.4 M156.9,81.5
	l-2.4,1 M153.1,83.1l1.2-0.6 M148.5,117.4l-1.6,5.9 M152.1,124.3l-5.2-1 M183.4,92l0.2-1.2 M180.3,88l3.2,2.8 M143.5,97.6l-2.9,4.2
	 M142.6,103.2l-1.9-1.4 M175.5,83.3l-1.1-0.7 M171.8,81.6l2.6,1 M184.7,110l3-1.4 M185.1,103.7l2.7,4.9 M174.6,124.6l5.3-0.8
	 M178.5,117.7l1.3,6 M181.2,217.4l19.9-1.8 M151.6,84.6l-3.1,2 M148.1,87.6l0.4-1 M145.4,92.8l-3.1,3.6 M143.5,97.6l-1.2-1.3
	 M185.1,103.7l2.1-1.3 M184.3,98.1l2.9,4.3 M165.2,80.1h-1.5 M163.9,80.1l-0.2,0.1 M162.1,80.2l1.5-0.1 M166.7,80.2l-1.5-0.1
	 M164.8,80.1l0.4,0.1 M156,81.9l-2.8,1.1 M152.3,83.8l0.9-0.8 M162.8,80.1l-0.6,0.1 M160.6,80.3l1.5-0.2 M146.1,110.8l-2,5.5
	 M148.5,117.4l-4.4-1.1 M168.2,80.4l-1.4-0.2 M165.8,80.1l0.9,0.1 M180.3,88l-0.3-1 M176.9,84.8l3.2,2.1 M161.9,80.3l-1.2,0.1
	 M159.3,80.7l1.3-0.3 M176.4,84l-0.9-0.7 M172.7,82.1l2.8,1.2 M184.3,98.1l1.3-1.3 M182.6,93.1l3,3.6 M169.6,80.7l-1.3-0.3
	 M166.8,80.3l1.3,0.2 M148.1,88.6l-3.2,2.9 M145.4,92.8l-0.5-1.2 M153.2,118.3l-1.1,6 M157.7,124.9l-5.5-0.6 M178.5,117.7l4.4-1.1
	 M181,111.1l1.9,5.5 M160.9,80.4l-1.6,0.2 M157.9,81l1.2-0.4 M173.6,118.4l1,6 M169,125l5.5-0.5 M173.6,118.4l1,6 M145.2,104.6
	l-2.4,5 M146.1,110.8l-3.5-1.2 M170.7,81.1l-1.2-0.4 M167.7,80.5l1.9,0.2 M182.6,93.1l0.7-1.1 M180.2,88.9l3.2,2.9 M155.3,82.4
	l-3,1.3 M151.6,84.6l0.6-0.7 M160.1,80.7l-2.1,0.4 M156.9,81.5L158,81 M151.3,85.4l-3.2,2.1 M148.1,88.6v-1 M158.2,118.8l-0.5,6
	 M163.4,125.2l-5.7-0.3 M145.2,99l-2.8,4.4 M145.2,104.6l-2.6-1.3 M171.8,81.6l-1.1-0.4 M168.6,80.8l2.1,0.4 M176.9,84.8l-0.4-0.8
	 M173.3,82.6l3,1.3 M181,111.1l3.6-1.1 M182.4,104.9l2.3,5.1 M163.4,125.2l5.6-0.2 M168.5,119l0.4,6 M161.1,217.8l-20.2-0.9
	 M163.5,119l-0.1,6.1 M180.2,88.9l0.2-1 M177.1,85.6l3.2,2.3 M146.5,93.9l-3,3.7 M145.2,99l-1.8-1.3 M150,111.8l-1.5,5.6
	 M153.2,118.3l-4.7-0.9 M159.4,80.9l-2.5,0.5 M156,81.9l0.9-0.5 M182.4,104.9l2.8-1.2 M182.5,99.3l2.7,4.4 M172.7,82.1l-0.9-0.5
	 M169.2,81.1l2.6,0.5 M161.1,217.8l20.2-0.4 M148.5,89.6l-3.1,3.1 M146.5,93.9l-1.1-1.1 M173.6,118.4l4.9-0.7 M177,112.1l1.4,5.6
	 M154.7,83.1l-3.1,1.5 M151.3,85.4l0.4-0.9 M182.5,99.3l1.9-1.2 M181.5,94.3l2.9,3.8 M158.7,81.3l-2.8,0.6 M155.3,82.4l0.7-0.5
	 M177.1,85.6l-0.3-0.8 M173.8,83.2l3.1,1.6 M148.2,105.7l-2,5.1 M150,111.8l-3.8-1 M151.4,86.2l-3.3,2.4 M148.5,89.6l-0.4-1
	 M181.5,94.3l1.2-1.1 M179.6,90l3,3.1 M173.3,82.6l-0.6-0.6 M169.8,81.5l2.9,0.6 M164.8,80.1h-1 M164.1,80.6l-0.3-0.5 M162.8,80.1
	l1.1-0.1 M165.8,80.1l-1.1-0.1 M164.5,80.6l0.4-0.5 M154.3,112.6l-1.1,5.7 M158.2,118.8l-5-0.5 M163.5,80.6l-0.7-0.4 M161.9,80.3
	l1-0.2 M166.8,80.3l-1-0.2 M165,80.7l0.9-0.5 M177,112.1l4-1 M179.2,106l1.9,5.1 M163,80.7l-1.2-0.4 M160.9,80.4l1-0.2 M179.6,90
	l0.5-1 M177,86.4l3.2,2.5 M147.5,100l-2.4,4.5 M148.2,105.7l-3-1.1 M167.7,80.5l-0.9-0.2 M165.5,80.7l1.3-0.4 M172.7,112.8l0.9,5.7
	 M168.5,119l5.1-0.5 M172.7,112.8l0.9,5.7 M158.2,81.6l-3,0.8 M154.7,83.1l0.4-0.6 M154.5,83.7l-3.2,1.8 M151.4,86.2l-0.1-0.8
	 M162.6,80.7l-1.7-0.3 M160.1,80.7l0.8-0.2 M168.6,80.8l-0.9-0.3 M165.9,80.8l1.8-0.3 M148,95l-2.8,4 M147.5,100l-2.2-1.1
	 M173.8,83.2l-0.4-0.6 M170.3,81.8l3,0.9 M179.2,106l3.1-1.1 M180.1,100.4l2.2,4.5 M177,86.4l0.2-0.8 M173.8,83.9l3.3,1.8
	 M158.8,113.1l-0.6,5.7 M163.5,119l-5.2-0.2 M162.1,80.9l-2.1-0.2 M159.4,80.9l0.7-0.3 M149.4,90.6l-3,3.3 M148,95l-1.5-1.1
	 M169.2,81.1l-0.6-0.3 M166.4,80.9l2.2-0.2 M163.5,119l5.1-0.1 M168.2,113.2l0.4,5.8 M163.5,113.3l-0.1,5.8 M180.1,100.4l2.3-1.1
	 M179.9,95.3l2.6,4 M151.6,106.6l-1.6,5.2 M154.3,112.6l-4.3-0.8 M151.7,87l-3.1,2.6 M149.4,90.6l-0.9-1 M161.8,81l-2.4-0.1
	 M158.7,81.3l0.6-0.4 M157.9,82l-3.1,1 M154.5,83.7l0.3-0.6 M169.8,81.5l-0.5-0.4 M166.7,81.1h2.5 M179.9,95.3l1.6-1.1 M178.6,90.9
	l2.9,3.3 M173.8,83.9l-0.1-0.6 M170.6,82.2l3.2,1.1 M172.7,112.8l4.4-0.6 M175.6,106.9l1.4,5.2 M154.6,84.2l-3.2,1.9 M151.7,87
	l-0.4-0.8 M178.6,90.9l1.1-1 M176.5,87.3l3.1,2.7 M161.4,81.1l-2.8,0.2 M158.2,81.6l0.4-0.4 M150.2,101l-2,4.7 M151.6,106.6
	l-3.5-0.9 M170.3,81.8l-0.4-0.4 M167,81.2l2.8,0.2 M176.5,87.3l0.4-0.9 M173.8,84.5l3.2,1.9 M157.8,82.4l-3.2,1.2 M154.6,84.2
	l-0.1-0.6 M161.3,81.4l-3,0.3 M157.9,82l0.4-0.4 M149.9,96l-2.3,4.1 M150.2,101l-2.7-1 M155.4,107.3l-1.1,5.2 M158.8,113.1l-4.6-0.5
	 M175.6,106.9l3.6-0.9 M177.3,101.3l1.9,4.7 M173.8,84.5l0.1-0.6 M170.6,82.6l3.2,1.3 M170.6,82.2l-0.3-0.4 M167.3,81.5l3,0.4
	 M150.7,91.5L148,95 M149.9,96l-1.9-1 M164.5,80.6h-0.4 M164.2,81.6l-0.2-1 M163.5,80.6h0.5 M165,80.7l-0.4-0.1 M164.2,81.6l0.3-1
	 M164.2,81.6l-0.7-1 M163,80.7l0.4-0.1 M171.7,107.5l1,5.2 M168.2,113.2l4.6-0.4 M171.7,107.5l1,5.2 M165.5,80.7l-0.4-0.1
	 M164.2,81.6l0.7-1 M152.4,87.8l-3,2.8 M150.7,91.5l-1.2-0.9 M164.2,81.6l-1.2-1 M162.6,80.7l0.4-0.1 M165.9,80.8l-0.4-0.1
	 M164.2,81.6l1.2-0.9 M177.3,101.3l2.8-1 M177.8,96.2l2.2,4.1 M164.2,81.6l-1.7-0.9 M162.1,80.9l0.4-0.2 M154.8,84.9l-3.1,2.1
	 M152.4,87.8l-0.7-0.8 M166.4,80.9l-0.4-0.2 M164.2,81.6l1.7-0.8 M161.1,81.6l-3.2,0.4 M157.8,82.4L158,82 M164.2,81.6l-2.1-0.7
	 M161.8,81l0.4-0.2 M177.8,96.2l2-1 M177.2,91.8l2.7,3.6 M159.5,107.8l-0.5,5.3 M163.5,113.3l-4.7-0.2 M166.7,81.1l-0.4-0.2
	 M164.2,81.6l2.1-0.6 M170.6,82.6l-0.1-0.4 M167.3,81.6l3.2,0.5 M157.9,82.9l-3.2,1.3 M154.8,84.9l-0.3-0.6 M177.2,91.8l1.3-0.9
	 M175.7,88l2.9,2.9 M163.5,113.3l4.6-0.1 M167.6,107.9l0.4,5.3 M164.2,81.6l-2.5-0.6 M161.4,81.1l0.4-0.2 M175.7,88l0.8-0.7
	 M173.4,85l3,2.2 M153.2,101.8l-1.6,4.8 M155.4,107.3l-3.8-0.7 M167,81.2l-0.3-0.2 M164.2,81.6l2.5-0.5 M163.6,107.9l-0.1,5.3
	 M173.4,85l0.4-0.6 M170.6,83.1l3.2,1.4 M164.2,81.6l-2.8-0.4 M161.3,81.4l0.2-0.2 M161.1,81.7l-3.3,0.7 M157.9,82.9l-0.1-0.4
	 M167.3,81.5l-0.3-0.2 M164.2,81.6l2.8-0.4 M171.7,107.5l3.8-0.6 M174.1,102.1l1.4,4.9 M170.6,83.1l0.1-0.4 M167.4,81.8l3.2,0.8
	 M164.2,81.6l-3-0.2 M161.1,81.6l0.2-0.2 M152.2,96.8l-2,4.3 M153.2,101.8l-3-0.8 M167.3,81.6l-0.1-0.2 M164.2,81.6l3-0.2
	 M152.3,92.3l-2.4,3.6 M152.2,96.8l-2.3-0.8 M155.4,85.5l-2.9,2.3 M153.4,88.5l-1-0.7 M157.9,83.2l-3.1,1.7 M155.4,85.5l-0.4-0.6
	 M153.4,88.5l-2.8,2.9 M152.3,92.3l-1.6-0.8 M164.2,81.6h-3.1 M161.1,81.7l0.1-0.2 M161.1,81.9l-3.2,1 M157.9,83.2l-0.2-0.4
	 M167.4,81.8l-0.1-0.2 M164.2,81.6l3,0.1 M174.1,102.1l3.1-0.7 M175.4,97l1.9,4.4 M156.5,102.4l-1.1,4.9 M159.5,107.8l-4-0.4
	 M172.8,85.6l0.6-0.6 M170.3,83.4l3.1,1.7 M170.3,83.4l0.3-0.4 M167.4,82l3.1,1 M164.2,81.6l-3.2,0.2 M161.1,81.9v-0.2 M174.6,88.8
	l1.1-0.7 M172.8,85.6l2.9,2.4 M175.4,97l2.4-0.7 M175.5,92.6l2.3,3.6 M167.4,82v-0.2 M164.2,81.6l3.1,0.2 M175.5,92.6l1.7-0.8
	 M174.6,88.8l2.6,3 M170.7,102.5l1,4.9 M167.6,107.9l4.1-0.4 M170.7,102.5l1,4.9 M164.2,81.6L161,82 M161.1,82.2L161,82 M165.1,83.1
	l-0.9-1.4 M165.6,83l-1.3-1.3 M166,82.9l-1.8-1.3 M166.4,82.7l-2.1-1.1 M166.7,82.6l-2.5-1 M167.1,82.4l-2.8-0.9 M167.3,82.3l-3-0.6
	 M167.4,82l-3.1-0.4 M161.1,82.2l3.1-0.6 M161.3,82.4l3-0.8 M161.5,82.5l2.8-1 M161.9,82.6l2.4-1.1 M162.2,82.8l2-1.2 M162.7,83
	l1.6-1.3 M163.1,83.1l1.1-1.4 M163.6,83.1l0.6-1.5 M164.2,83.1l0.1-1.5 M164.6,83.1l-0.4-1.5 M165.1,83.1l-0.9-1.4 M161.1,82.2
	l-3.1,1.1 M158.3,83.7l-0.4-0.4 M167.3,82.3l0.2-0.2 M158.3,83.7l-3,1.8 M156.2,86l-0.8-0.5 M169.9,83.8l0.4-0.4 M167.3,82.3l3,1.1
	 M160.1,102.8l-0.6,5 M163.6,107.9l-4.2-0.2 M161.3,82.4l-0.2-0.2 M154.7,97.5l-1.5,4.4 M156.5,102.4l-3.3-0.6 M167.1,82.4l0.2-0.2
	 M163.6,107.9l4-0.1 M167.3,102.8l0.4,5 M156.2,86l-2.8,2.5 M154.7,89.2l-1.2-0.6 M172,86.2l0.8-0.5 M169.9,83.8l2.8,1.9
	 M163.7,102.9l-0.1,5 M161.5,82.5l-0.3-0.2 M158.3,83.7l3-1.3 M154.7,89.2l-2.4,3.1 M154.2,93l-1.9-0.7 M154.2,93l-2,3.7
	 M154.7,97.5l-2.6-0.7 M170.7,102.5l3.4-0.5 M172.8,97.6l1.3,4.4 M158.7,84l-0.4-0.4 M166.7,82.6l0.4-0.2 M169.9,83.8l-2.9-1.3
	 M173.2,89.3l1.4-0.5 M172,86.2l2.7,2.6 M169.4,84.1l0.5-0.4 M161.9,82.6l-0.4-0.2 M158.7,84l2.8-1.5 M166.4,82.7l0.4-0.2
	 M169.4,84.1l-2.7-1.5 M173.6,93.2l1.9-0.6 M173.2,89.3l2.2,3.3 M172.8,97.6l2.7-0.6 M173.6,93.2l1.9,3.7 M158.7,84l-2.7,1.9
	 M157.1,86.5l-1-0.5 M162.2,82.8l-0.4-0.2 M159.5,84.3l2.4-1.7 M166,82.9l0.4-0.2 M168.7,84.4l-2.2-1.7 M159.5,84.3l-0.6-0.3
	 M157.7,98l-1.1,4.4 M160.1,102.8l-3.6-0.4 M171,86.6l1-0.5 M169.4,84.1l2.6,2 M162.7,83l-0.4-0.2 M160.3,84.6l2-1.8 M168.7,84.4
	l0.7-0.3 M165.6,83l0.4-0.1 M167.9,84.7l-1.9-1.8 M157.1,86.5l-2.4,2.7 M156.2,89.6l-1.5-0.5 M169.8,98.1l1,4.4 M167.3,102.8
	l3.6-0.3 M169.8,98.1l1,4.4 M163.1,83.1l-0.4-0.1 M161.1,84.8l1.5-1.9 M165.1,83.1l0.4-0.1 M167,84.9l-1.3-1.9 M163.6,83.1l-0.4-0.1
	 M162,84.9l1.1-1.9 M156.3,93.6l-1.6,3.9 M157.7,98l-2.9-0.5 M164.6,83.1l0.5-0.1 M166,85l-0.9-2 M166,85l-0.9-2 M156.2,89.6l-2,3.3
	 M156.3,93.6l-2.1-0.6 M160.3,84.6l-0.8-0.3 M157.1,86.5l2.3-2.1 M164.2,83.1h-0.5 M163,85.1l0.5-2 M171.6,89.9l1.6-0.6 M171,86.6
	l2.2,2.7 M164.2,83.1h0.4 M165,85.1l-0.4-2 M164.1,85.2l0.1-2.1 M158.2,86.9l-1.1-0.4 M160.6,98.3l-0.5,4.4 M163.7,102.9l-3.6-0.2
	 M167.9,84.7l0.8-0.3 M171,86.6l-2.3-2.2 M163.7,102.9l3.6-0.1 M166.7,98.3l0.4,4.4 M169.8,98.1l3-0.4 M171.4,93.7l1.4,3.9
	 M171.4,93.7l2.2-0.5 M171.6,89.9l1.9,3.3 M169.8,87l1.2-0.4 M163.8,98.4l-0.1,4.4 M161.1,84.8l-0.9-0.2 M158.2,86.9l2-2.3
	 M167,84.9l0.9-0.2 M169.8,87l-1.9-2.3 M158.2,86.9l-2,2.8 M157.9,90.2l-1.7-0.5 M158.7,94l-1.1,4 M160.6,98.3l-3-0.3 M159.5,87.2
	l-1.2-0.3 M162,84.9l-0.9-0.2 M159.5,87.2l1.6-2.4 M169.8,90.3l1.8-0.4 M169.8,87l1.9,2.9 M157.9,90.2l-1.5,3.4 M158.7,94l-2.3-0.4
	 M166,85l1-0.2 M168.4,87.3l-1.4-2.5 M169,94.1l0.9,4 M166.7,98.3l3-0.3 M169,94.1l0.9,4 M168.4,87.3l1.3-0.4 M163,85.1l-1.1-0.2
	 M161,87.5l1-2.5 M169,94.1l2.4-0.4 M169.8,90.3l1.4,3.5 M165,85.1l1-0.1 M167,87.6l-1-2.5 M167,87.6l-1-2.5 M164.1,85.2l-1.1-0.1
	 M162.4,87.7l0.6-2.5 M161.2,94.3l-0.5,4.1 M163.8,98.4l-3.1-0.2 M164.1,85.2l1-0.1 M165.5,87.7l-0.4-2.6 M161,87.5l-1.4-0.3
	 M164,87.7l0.1-2.5 M157.9,90.2l1.6-2.9 M159.8,90.4l-1.9-0.3 M163.8,98.4l3-0.1 M166.4,94.3l0.4,4.1 M167,87.6l1.4-0.2 M169.8,90.3
	l-1.4-2.9 M163.9,94.4l-0.1,4.1 M168,90.6l1.9-0.4 M159.8,90.4l-1.1,3.6 M161.2,94.3l-2.5-0.2 M168,90.6l1,3.5 M166.4,94.3l2.6-0.2
	 M168,90.6l1,3.5 M162.4,87.7l-1.4-0.2 M159.8,90.4l1.1-2.9 M165.5,87.7l1.5-0.2 M168,90.6l-1-3 M168,90.6l-1-3 M161.9,90.7l-2-0.2
	 M164,87.7l-1.6-0.1 M161.9,90.7l0.5-3 M161.9,90.7l-0.6,3.6 M163.9,94.4l-2.7-0.2 M165.9,90.8l2-0.2 M164,87.7h1.4 M165.9,90.8
	l-0.4-3 M163.9,94.4l2.5-0.1 M165.9,90.8l0.4,3.6 M163.9,90.8l0.1-3.1 M163.9,90.8l-0.1,3.6 M163.9,90.8l-2.1-0.2 M163.9,90.8l2-0.1
	"/>
<path d="M406.2,51h128.9v34.3H447v62.5h81.9v33.7H447v96.2h-40.8V51z"/>
<path d="M574.5,51h39.8v38.2h-39.8V51z M574.5,115.8h39.8v161.9h-39.8V115.8z"/>
<path d="M643.8,115.8h115.3v31.7l-75.5,99.8H761v30.5H641.9v-32.4l73.5-99.8h-71.6L643.8,115.8L643.8,115.8z"/>
<path d="M910.7,192.9h42.8c-0.4,26.1-8.1,47.6-23,64.5c-15.1,17.7-35.5,26.5-61.2,26.2c-29.8-0.4-52.6-12.3-68.3-35.6
	c-13.6-19.4-20.4-47.3-20.4-83.6s6.8-64.1,20.4-83.6c15.8-23.3,38.5-35.2,68.3-35.6c25.9-0.4,46.2,8.3,60.9,26.2
	c14,16.8,21,37.9,21,63.2h-41.5c1.3-15.8-1.8-29.1-9.4-40.2c-7.8-10.8-18.4-15.8-31.7-14.9c-17.5,0.6-30,9.6-37.6,26.9
	c-5.2,12.1-7.8,31.2-7.8,57.3c0,25.3,2.6,43.8,7.8,55.7c7.6,18.6,20.3,28.1,38.2,28.5c15.8,0,27.2-6.4,34.3-19.1
	C908.3,219.4,910.7,207.4,910.7,192.9z"/>
<path d="M977.7,196.8c0-26.1,6.5-47.1,19.4-62.8c13.2-16,31.1-24,53.8-24s40.6,8,53.8,24c13,15.8,19.4,36.7,19.4,62.8
	s-6.5,47.1-19.4,62.8c-13.2,16-31.1,24-53.8,24s-40.6-8-53.8-24C984.2,243.9,977.7,222.9,977.7,196.8z M1019.5,196.1
	c0,14.7,1.3,25.9,3.9,33.7c1.9,6,4.8,10.9,8.6,14.4c3.8,3.6,7.1,5.8,10,6.6c2.9,0.9,5.9,1.3,8.9,1.3c13.2,0,22.3-7.5,27.5-22.4
	c2.6-7.8,3.9-19,3.9-33.7s-1.3-25.9-3.9-33.7c-5.2-14.9-14.4-22.4-27.5-22.4c-3,0-6,0.4-8.9,1.3s-6.3,3.1-10,6.6s-6.6,8.4-8.6,14.4
	C1020.8,170.2,1019.5,181.5,1019.5,196.1z"/>
<path d="M1165.5,51h39.8v38.2h-39.8V51z M1165.5,115.8h39.8v161.9h-39.8V115.8z"/>
<path d="M1244.2,115.8h37.9l1.9,16.5c3-5.8,7.7-10.5,13.9-13.9c8-4.8,16.9-7.1,26.9-7.1c19.6-0.2,34.1,6.8,43.4,21.1
	c1.7,2.6,3.1,5.5,4.2,8.6s1.9,5.8,2.6,8.1s1.1,5.4,1.5,9.4c0.3,4,0.5,6.7,0.5,8.1s0,4.4,0,9.1c0,4.6,0,7.1,0,7.3v94.9h-40.8v-94.6
	c0-13.4-0.8-22-2.3-25.9c-4.1-9.5-11.2-14.2-21.4-14.2c-10.8,0-18.8,4.8-24,14.2c-3,5.4-4.5,16.2-4.5,32.4v88.1h-39.8L1244.2,115.8
	L1244.2,115.8z"/>
<rect x="1145.6" y="115.8" width="39.8" height="38.2"/>
<rect x="554.6" y="115.8" width="39.8" height="38.2"/>
<g>
	<path class="st2" d="M1570.7,213.2l52-148.1h41l-73.9,199.2h-39.9l-73.6-199.2h42.4L1570.7,213.2z"/>
	<path class="st2" d="M1670.5,164.8c0-31.1,10-56.2,30.1-75.3c20-19.1,44.1-28.7,72.2-28.7c28.3,0,52.5,9.6,72.5,28.7
		c20,19.1,30.1,44.2,30.1,75.3c0,30.9-10,55.9-30.1,75c-20,19.1-44.2,28.7-72.5,28.7c-28.1,0-52.2-9.6-72.2-28.7
		C1680.5,220.8,1670.5,195.8,1670.5,164.8z M1729.2,115.5c-12.4,11.5-18.5,27.9-18.5,49c0,21.2,6.2,37.5,18.5,49
		c12.4,11.5,26.9,17.3,43.6,17.3c16.9,0,31.5-5.8,43.8-17.3c12.4-11.5,18.5-27.9,18.5-49c0-21.2-6.2-37.5-18.5-49
		s-27-17.3-43.8-17.3C1756.1,98.2,1741.5,104,1729.2,115.5z"/>
	<path class="st2" d="M2050.4,101.9h-62.9v162.4h-39.1V101.9h-62.9V65.1h164.9V101.9z"/>
	<path class="st2" d="M2202.4,264.3h-124.8V65.1h124.8v36.5h-86v45.5h77.8v34.6h-77.8v46.1h86V264.3z"/>
</g>
</svg>
